<?xml version="1.0" encoding="UTF-8" standalone="no"?>
<svg
   style="shape-rendering:geometricPrecision;text-rendering:geometricPrecision;image-rendering:optimizeQuality"
   fill-rule="evenodd"
   xml:space="preserve"
   clip-rule="evenodd"
   viewBox="0 0 13 13"
   version="1.1"
   id="svg13"
   sodipodi:docname="call_icon.svg"
   inkscape:version="1.1.2 (0a00cf5339, 2022-02-04)"
   xmlns:inkscape="http://www.inkscape.org/namespaces/inkscape"
   xmlns:sodipodi="http://sodipodi.sourceforge.net/DTD/sodipodi-0.dtd"
   xmlns="http://www.w3.org/2000/svg"
   xmlns:svg="http://www.w3.org/2000/svg"><sodipodi:namedview
   id="namedview15"
   pagecolor="#ffffff"
   bordercolor="#666666"
   borderopacity="1.0"
   inkscape:pageshadow="2"
   inkscape:pageopacity="0.0"
   inkscape:pagecheckerboard="0"
   showgrid="false"
   inkscape:zoom="11.825397"
   inkscape:cx="31.5"
   inkscape:cy="31.5"
   inkscape:window-width="1856"
   inkscape:window-height="1016"
   inkscape:window-x="64"
   inkscape:window-y="27"
   inkscape:window-maximized="1"
   inkscape:current-layer="svg13" />
 <defs
   id="defs4">
  <style
   type="text/css"
   id="style2">
    .fil0 {fill:#D4AF37}
    .fil1 {fill:#D4AF37;fill-rule:nonzero}
  </style>
 </defs>
 <g
   id="Layer_x0020_1"
   transform="matrix(0.22305386,0,0,0.22305386,-2.4213754e-4,0)">
  <g
   id="_152222920">
   <path
   id="_152222248"
   class="fil0"
   d="m 24.186,22.5 c -5.4466,3.1445 2.8637,18.724 8.8237,15.283 1.0584,1.8332 4.4676,7.7381 5.526,9.5712 -2.5146,1.4519 -4.6432,2.3671 -7.5585,0.70054 -8.0946,-4.6273 -17.005,-20.054 -16.751,-29.256 0.08805,-3.196 1.971,-4.4482 4.434,-5.8702 1.0584,1.8332 4.4676,7.738 5.526,9.5712 z" />
   <path
   id="_150519168"
   class="fil0"
   d="m 26.47,22.24 c -0.58849,0.33978 -1.3458,0.13697 -1.6856,-0.45158 l -5.2095,-9.0232 c -0.33984,-0.58862 -0.13704,-1.3459 0.45152,-1.6857 l 2.738,-1.5808 c 0.58855,-0.33984 1.346,-0.13685 1.6858,0.4517 l 5.2095,9.0231 c 0.33978,0.58849 0.13691,1.3458 -0.45158,1.6856 l -2.738,1.5808 z" />
   <path
   id="_226148072"
   class="fil0"
   d="m 40.702,46.89 c -0.58849,0.33978 -1.3458,0.13697 -1.6856,-0.45164 l -5.2095,-9.0232 c -0.33984,-0.58855 -0.13704,-1.3459 0.45152,-1.6856 l 2.738,-1.5808 c 0.58855,-0.33978 1.346,-0.13679 1.6858,0.4517 l 5.2095,9.0231 c 0.33978,0.58855 0.13691,1.3459 -0.45158,1.6856 l -2.738,1.5808 z" />
  </g>
  <path
   class="fil1"
   d="m 29.141,0 h 4.32e-4 v 0.006787 c 8.05,1.234e-4 15.335,3.26 20.604,8.5296 5.2693,5.2693 8.5291,12.554 8.5293,20.604 h 0.0068 v 0.0014 h -0.0068 c -1.24e-4,8.05 -3.26,15.335 -8.5296,20.604 -5.2694,5.2693 -12.554,8.5291 -20.604,8.5293 v 0.0068 h -0.0014 v -0.0068 c -8.05,-1.23e-4 -15.335,-3.26 -20.6039995,-8.5296 -5.2693,-5.2694 -8.5291,-12.554 -8.5293,-20.604 h -0.006787 v -0.0014 h 0.006787 c 1.234e-4,-8.05 3.26,-15.335 8.5296,-20.604 5.2692995,-5.2693 12.5539995,-8.5291 20.6039995,-8.5293 V 0 Z m 4.32e-4,3.4758 v 0.00679 h -0.0014 V 3.4758 c -7.0792,1.851e-4 -13.494,2.8753 -18.141,7.5226 -4.6476995,4.6476 -7.5228995,11.063 -7.5228995,18.142 h 0.00679 v 0.0014 h -0.00679 c 1.851e-4,7.0792 2.8753,13.494 7.5226005,18.141 4.6476,4.6477 11.062999,7.5229 18.141999,7.5229 v -0.0068 h 0.0014 v 0.0068 c 7.0792,-1.85e-4 13.494,-2.8753 18.141,-7.5226 4.6477,-4.6476 7.5229,-11.063 7.5229,-18.142 h -0.0068 v -0.0014 h 0.0068 c -1.85e-4,-7.0792 -2.8753,-13.494 -7.5226,-18.141 -4.6476,-4.6477 -11.063,-7.5229 -18.142,-7.5229 z"
   id="path10" />
 </g>
</svg>
